<?xml version="1.0" encoding="UTF-8"?>
<svg version="1.1" xmlns="http://www.w3.org/2000/svg" width="149" height="148">
<path d="M0 0 C5.18860757 5.13054584 5.18860757 5.13054584 7.03417969 6.9921875 C8.52884798 8.49536896 10.04123002 9.97892987 11.5559082 11.46191406 C12.52253445 12.42692788 13.48806677 13.39303895 14.45239258 14.36035156 C15.32017334 15.2262793 16.1879541 16.09220703 17.08203125 16.984375 C21.59141617 22.49265892 22.92810314 27.92479356 22.68676758 34.98144531 C21.83881328 41.89178555 19.12290111 46.23307523 14.03442383 50.87597656 C11.93660111 52.78505373 11.93660111 52.78505373 10.34692383 54.75097656 C10.20171018 57.67001521 10.20171018 57.67001521 10.83911133 59.57128906 C11.55617627 62.64915242 11.47859608 65.59500198 11.47192383 68.75097656 C11.47450195 69.97042969 11.47708008 71.18988281 11.47973633 72.44628906 C11.37268905 75.10987726 11.07809065 77.10751306 10.34692383 79.62597656 C10.01568227 82.76158985 10.01568227 82.76158985 11.92114258 84.66113281 C13.35303888 86.03480043 14.80165499 87.39121193 16.26489258 88.73144531 C21.11545577 93.43640061 22.57807558 98.06337632 22.84692383 104.75097656 C22.9391885 113.23932675 18.85927153 118.45875222 13.21411133 124.30957031 C11.23458613 126.28789015 9.22952206 128.23872221 7.22192383 130.18847656 C6.19631614 131.20257332 5.17156898 132.21754113 4.14770508 133.23339844 C-2.7525484 140.03896636 -5.65202179 141.98879446 -15.27807617 142.18847656 C-16.15592773 142.23423828 -17.0337793 142.28 -17.93823242 142.32714844 C-24.90417984 142.44618023 -28.64986969 140.50587984 -33.65307617 135.75097656 C-34.2542627 135.0383667 -34.85544922 134.32575684 -35.47485352 133.59155273 C-39.90267374 129.85008931 -46.36768655 131.01184092 -51.90307617 131.00097656 C-53.85020508 130.9275 -53.85020508 130.9275 -55.83666992 130.85253906 C-62.91987432 130.7107888 -62.91987432 130.7107888 -69.2175293 133.51464844 C-71.3336917 135.60653031 -71.3336917 135.60653031 -73.03100586 137.83203125 C-75.29361672 140.5087503 -77.29413111 141.5632421 -80.75610352 142.04150391 C-83.18065087 142.09081134 -85.6029907 142.12227979 -88.02807617 142.12597656 C-88.8659668 142.15046875 -89.70385742 142.17496094 -90.56713867 142.20019531 C-100.02365981 142.24480154 -104.6595877 137.04422896 -111.14331055 130.68066406 C-112.0334082 129.79636719 -112.92350586 128.91207031 -113.84057617 128.00097656 C-114.74227539 127.13214844 -115.64397461 126.26332031 -116.57299805 125.36816406 C-122.74944778 119.24230327 -127.02740112 113.95599911 -127.15307617 104.87597656 C-126.94943617 99.11207914 -124.95706153 94.43464811 -121.65307617 89.75097656 C-121.08717773 89.30028809 -120.5212793 88.84959961 -119.93823242 88.38525391 C-116.68061848 85.73013234 -114.89946352 83.86543412 -113.97412109 79.67993164 C-113.71078669 76.0129936 -113.69818158 72.42612786 -113.77807617 68.75097656 C-113.75100586 67.50574219 -113.72393555 66.26050781 -113.69604492 64.97753906 C-113.64243908 58.38798472 -113.64243908 58.38798472 -116.16992188 52.48657227 C-117.92025767 50.77818001 -119.74164774 49.27326168 -121.65307617 47.75097656 C-125.48155944 42.32378599 -127.20784544 37.08726506 -127.21948242 30.46582031 C-125.16174517 20.60287278 -119.35780714 14.74234577 -112.27807617 7.87597656 C-111.33438943 6.93164079 -110.39167398 5.98633334 -109.44995117 5.04003906 C-103.01403821 -1.30471366 -98.18751677 -5.67604522 -88.77807617 -5.68652344 C-82.77173925 -5.53494396 -78.46678863 -4.89233552 -73.65307617 -1.24902344 C-72.71069868 -0.05261229 -71.77210573 1.1467864 -70.83666992 2.34863281 C-66.47840844 6.76344263 -62.04776025 6.66500986 -56.07104492 6.70800781 C-54.77811523 6.6809375 -53.48518555 6.65386719 -52.15307617 6.62597656 C-50.21368164 6.66658203 -50.21368164 6.66658203 -48.23510742 6.70800781 C-41.43186786 6.77313241 -41.43186786 6.77313241 -35.31567383 4.21435547 C-33.46599625 2.41057082 -33.46599625 2.41057082 -32.02856445 0.48339844 C-29.29778388 -2.95600855 -25.43346998 -4.62347967 -21.34057617 -6.06152344 C-13.14910455 -6.63302146 -6.4105723 -5.43426816 0 0 Z M-99.88745117 12.62207031 C-101.40048643 14.13642584 -102.90552019 15.65881175 -104.40307617 17.18847656 C-105.17006836 17.95224609 -105.93706055 18.71601563 -106.72729492 19.50292969 C-112.34816349 24.74867775 -112.34816349 24.74867775 -114.80541992 31.75097656 C-114.73452148 32.41097656 -114.66362305 33.07097656 -114.59057617 33.75097656 C-114.53772461 34.41097656 -114.48487305 35.07097656 -114.43041992 35.75097656 C-113.2853775 38.69701535 -111.17008894 39.94678181 -108.65307617 41.75097656 C-108.27538086 41.01234375 -107.89768555 40.27371094 -107.50854492 39.51269531 C-100.59970089 26.77906474 -91.51390693 18.32728269 -78.65307617 11.75097656 C-81.1614401 8.87373558 -82.93968554 6.99383295 -86.59057617 5.75097656 C-92.35262475 5.75097656 -95.87805987 8.78746684 -99.88745117 12.62207031 Z M-22.65307617 8.75097656 C-23.31307617 9.74097656 -23.97307617 10.73097656 -24.65307617 11.75097656 C-23.9750293 12.151875 -23.29698242 12.55277344 -22.59838867 12.96582031 C-12.28019556 19.26820696 -4.24233337 25.81815456 1.87426758 36.36816406 C3.19931807 38.51214497 4.48536779 40.07279769 6.34692383 41.75097656 C8.78152838 38.63163948 10.23972015 36.27724916 11.03442383 32.37597656 C10.01459764 26.99871122 7.14610092 24.54395597 3.34692383 20.75097656 C2.30709156 19.6435433 1.26949401 18.53400924 0.23364258 17.42285156 C-0.89377315 16.23913848 -2.02268884 15.05685225 -3.15307617 13.87597656 C-3.68634521 13.30411621 -4.21961426 12.73225586 -4.76904297 12.14306641 C-10.24194293 6.56262584 -15.61276928 4.00286262 -22.65307617 8.75097656 Z M-90.80541992 34.45800781 C-100.01646425 45.88905013 -104.5958297 59.14332376 -103.40307617 73.82910156 C-101.39826035 87.79121178 -95.08859826 100.06991596 -84.05151367 109.12207031 C-71.56490568 117.60238877 -59.75812443 120.96789888 -44.65307617 119.75097656 C-31.1429361 117.07630316 -19.16165484 110.70665058 -10.65307617 99.75097656 C-2.14324953 86.22624172 1.75434691 72.53759636 -1.84057617 56.62597656 C-5.86543822 42.26751521 -13.84777475 31.45429681 -26.65307617 23.75097656 C-48.75311839 12.87635262 -73.552152 16.14191025 -90.80541992 34.45800781 Z M-109.65307617 95.75097656 C-113.4990949 99.68983455 -113.4990949 99.68983455 -115.21557617 104.75097656 C-113.87304922 111.91112029 -107.78068036 117.01981887 -102.84057617 122.00097656 C-102.15415039 122.72027344 -101.46772461 123.43957031 -100.76049805 124.18066406 C-96.58040903 128.40425447 -93.59352476 130.85513636 -87.65307617 131.75097656 C-83.49340675 130.80559715 -82.05637645 129.13493385 -79.65307617 125.75097656 C-80.49870117 125.19410156 -81.34432617 124.63722656 -82.21557617 124.06347656 C-92.34626763 117.294727 -99.86271276 110.66604849 -106.20776367 100.07128906 C-107.58015192 97.67301071 -107.58015192 97.67301071 -109.65307617 95.75097656 Z M5.34692383 95.75097656 C4.08599299 97.58368989 2.86412494 99.4433215 1.65942383 101.31347656 C-4.21254433 110.19073176 -9.83170791 115.87273862 -18.72729492 121.73535156 C-21.00039295 123.30133098 -22.82625911 124.71113843 -24.65307617 126.75097656 C-22.47984737 129.34213398 -21.02480683 130.62976004 -17.77807617 131.68847656 C-12.97973844 131.78444332 -10.07956255 130.01111497 -6.4987793 126.84790039 C-4.07067539 124.49980199 -1.69854419 122.10695378 0.65942383 119.68847656 C1.48249023 118.86025391 2.30555664 118.03203125 3.15356445 117.17871094 C8.53349217 112.19183057 8.53349217 112.19183057 10.65942383 105.50097656 C10.29605547 101.14055627 9.06057563 99.12248335 6.34692383 95.75097656 C6.01692383 95.75097656 5.68692383 95.75097656 5.34692383 95.75097656 Z " fill="#05CEE1" transform="translate(126.653076171875,6.2490234375)"/>
</svg>
